<mxfile host="Electron" modified="2023-10-13T03:19:35.896Z" agent="Mozilla/5.0 (X11; Linux x86_64) AppleWebKit/537.36 (KHTML, like Gecko) draw.io/21.7.5 Chrome/114.0.5735.289 Electron/25.8.1 Safari/537.36" etag="yBmZ151prFP9MTREDlqT" version="21.7.5" type="device" pages="2">
  <diagram id="KppL1wh_2cTVNB4-jGqq" name="main-comcepts">
    <mxGraphModel dx="1430" dy="600" grid="1" gridSize="10" guides="1" tooltips="1" connect="1" arrows="1" fold="1" page="1" pageScale="1" pageWidth="550" pageHeight="660" math="0" shadow="0">
      <root>
        <mxCell id="0" />
        <mxCell id="1" parent="0" />
        <mxCell id="bnrtpsS_CM_vW4E39BOG-5" style="rounded=0;orthogonalLoop=1;jettySize=auto;html=1;endArrow=none;endFill=0;" edge="1" parent="1" source="bnrtpsS_CM_vW4E39BOG-1" target="bnrtpsS_CM_vW4E39BOG-3">
          <mxGeometry relative="1" as="geometry" />
        </mxCell>
        <mxCell id="bnrtpsS_CM_vW4E39BOG-6" style="rounded=0;orthogonalLoop=1;jettySize=auto;html=1;endArrow=none;endFill=0;" edge="1" parent="1" source="bnrtpsS_CM_vW4E39BOG-1" target="bnrtpsS_CM_vW4E39BOG-2">
          <mxGeometry relative="1" as="geometry" />
        </mxCell>
        <mxCell id="bnrtpsS_CM_vW4E39BOG-1" value="&lt;b&gt;N1&lt;/b&gt;" style="ellipse;whiteSpace=wrap;html=1;aspect=fixed;fillColor=#6a00ff;strokeColor=#3700CC;fontColor=#ffffff;" vertex="1" parent="1">
          <mxGeometry x="98" y="35" width="40" height="40" as="geometry" />
        </mxCell>
        <mxCell id="bnrtpsS_CM_vW4E39BOG-16" style="edgeStyle=none;rounded=0;orthogonalLoop=1;jettySize=auto;html=1;endArrow=none;endFill=0;" edge="1" parent="1" source="bnrtpsS_CM_vW4E39BOG-2">
          <mxGeometry relative="1" as="geometry">
            <mxPoint x="72.07722123286328" y="207.6351371575107" as="targetPoint" />
          </mxGeometry>
        </mxCell>
        <mxCell id="bnrtpsS_CM_vW4E39BOG-17" style="edgeStyle=none;rounded=0;orthogonalLoop=1;jettySize=auto;html=1;endArrow=none;endFill=0;" edge="1" parent="1" source="bnrtpsS_CM_vW4E39BOG-2" target="bnrtpsS_CM_vW4E39BOG-18">
          <mxGeometry relative="1" as="geometry">
            <mxPoint x="11.922778767136606" y="207.6351371575115" as="targetPoint" />
          </mxGeometry>
        </mxCell>
        <mxCell id="bnrtpsS_CM_vW4E39BOG-2" value="&lt;b&gt;N2&lt;/b&gt;" style="ellipse;whiteSpace=wrap;html=1;aspect=fixed;fillColor=#6a00ff;strokeColor=#3700CC;fontColor=#ffffff;" vertex="1" parent="1">
          <mxGeometry x="42" y="135" width="40" height="40" as="geometry" />
        </mxCell>
        <mxCell id="bnrtpsS_CM_vW4E39BOG-7" style="rounded=0;orthogonalLoop=1;jettySize=auto;html=1;endArrow=none;endFill=0;" edge="1" parent="1" source="bnrtpsS_CM_vW4E39BOG-3" target="bnrtpsS_CM_vW4E39BOG-4">
          <mxGeometry relative="1" as="geometry" />
        </mxCell>
        <mxCell id="bnrtpsS_CM_vW4E39BOG-13" style="edgeStyle=none;rounded=0;orthogonalLoop=1;jettySize=auto;html=1;endArrow=none;endFill=0;" edge="1" parent="1" source="bnrtpsS_CM_vW4E39BOG-3" target="bnrtpsS_CM_vW4E39BOG-21">
          <mxGeometry relative="1" as="geometry">
            <mxPoint x="128.72672793996298" y="206.16516176810399" as="targetPoint" />
          </mxGeometry>
        </mxCell>
        <mxCell id="bnrtpsS_CM_vW4E39BOG-24" style="edgeStyle=none;rounded=0;orthogonalLoop=1;jettySize=auto;html=1;endArrow=none;endFill=0;" edge="1" parent="1" source="bnrtpsS_CM_vW4E39BOG-3" target="bnrtpsS_CM_vW4E39BOG-20">
          <mxGeometry relative="1" as="geometry" />
        </mxCell>
        <mxCell id="bnrtpsS_CM_vW4E39BOG-3" value="&lt;b&gt;N3&lt;/b&gt;" style="ellipse;whiteSpace=wrap;html=1;aspect=fixed;fillColor=#6a00ff;strokeColor=#3700CC;fontColor=#ffffff;" vertex="1" parent="1">
          <mxGeometry x="152" y="85" width="40" height="40" as="geometry" />
        </mxCell>
        <mxCell id="bnrtpsS_CM_vW4E39BOG-11" style="edgeStyle=none;rounded=0;orthogonalLoop=1;jettySize=auto;html=1;endArrow=none;endFill=0;" edge="1" parent="1" source="bnrtpsS_CM_vW4E39BOG-4" target="bnrtpsS_CM_vW4E39BOG-22">
          <mxGeometry relative="1" as="geometry">
            <mxPoint x="191.9227787671366" y="207.6351371575107" as="targetPoint" />
          </mxGeometry>
        </mxCell>
        <mxCell id="bnrtpsS_CM_vW4E39BOG-12" style="edgeStyle=none;rounded=0;orthogonalLoop=1;jettySize=auto;html=1;endArrow=none;endFill=0;" edge="1" parent="1" source="bnrtpsS_CM_vW4E39BOG-4" target="bnrtpsS_CM_vW4E39BOG-23">
          <mxGeometry relative="1" as="geometry">
            <mxPoint x="252.0772212328634" y="207.6351371575107" as="targetPoint" />
          </mxGeometry>
        </mxCell>
        <mxCell id="bnrtpsS_CM_vW4E39BOG-4" value="&lt;b&gt;N4&lt;/b&gt;" style="ellipse;whiteSpace=wrap;html=1;aspect=fixed;fillColor=#6a00ff;strokeColor=#3700CC;fontColor=#ffffff;" vertex="1" parent="1">
          <mxGeometry x="182" y="135" width="40" height="40" as="geometry" />
        </mxCell>
        <mxCell id="bnrtpsS_CM_vW4E39BOG-18" value="L1" style="rounded=0;whiteSpace=wrap;html=1;fillColor=#d80073;fontColor=#ffffff;strokeColor=#A50040;fontStyle=1" vertex="1" parent="1">
          <mxGeometry x="12" y="205" width="30" height="30" as="geometry" />
        </mxCell>
        <mxCell id="bnrtpsS_CM_vW4E39BOG-19" value="L2" style="rounded=0;whiteSpace=wrap;html=1;fillColor=#d80073;fontColor=#ffffff;strokeColor=#A50040;fontStyle=1" vertex="1" parent="1">
          <mxGeometry x="54" y="205" width="30" height="30" as="geometry" />
        </mxCell>
        <mxCell id="bnrtpsS_CM_vW4E39BOG-20" value="L3" style="rounded=0;whiteSpace=wrap;html=1;fillColor=#d80073;fontColor=#ffffff;strokeColor=#A50040;fontStyle=1" vertex="1" parent="1">
          <mxGeometry x="96" y="205" width="30" height="30" as="geometry" />
        </mxCell>
        <mxCell id="bnrtpsS_CM_vW4E39BOG-21" value="L4" style="rounded=0;whiteSpace=wrap;html=1;fillColor=#d80073;fontColor=#ffffff;strokeColor=#A50040;fontStyle=1" vertex="1" parent="1">
          <mxGeometry x="138" y="205" width="30" height="30" as="geometry" />
        </mxCell>
        <mxCell id="bnrtpsS_CM_vW4E39BOG-22" value="L5" style="rounded=0;whiteSpace=wrap;html=1;fillColor=#d80073;fontColor=#ffffff;strokeColor=#A50040;fontStyle=1" vertex="1" parent="1">
          <mxGeometry x="180" y="205" width="30" height="30" as="geometry" />
        </mxCell>
        <mxCell id="bnrtpsS_CM_vW4E39BOG-23" value="L6" style="rounded=0;whiteSpace=wrap;html=1;fillColor=#d80073;fontColor=#ffffff;strokeColor=#A50040;fontStyle=1" vertex="1" parent="1">
          <mxGeometry x="222" y="205" width="30" height="30" as="geometry" />
        </mxCell>
        <mxCell id="bnrtpsS_CM_vW4E39BOG-25" style="rounded=0;orthogonalLoop=1;jettySize=auto;html=1;endArrow=none;endFill=0;" edge="1" source="bnrtpsS_CM_vW4E39BOG-27" target="bnrtpsS_CM_vW4E39BOG-34" parent="1">
          <mxGeometry relative="1" as="geometry" />
        </mxCell>
        <mxCell id="bnrtpsS_CM_vW4E39BOG-26" style="rounded=0;orthogonalLoop=1;jettySize=auto;html=1;endArrow=none;endFill=0;" edge="1" source="bnrtpsS_CM_vW4E39BOG-27" target="bnrtpsS_CM_vW4E39BOG-30" parent="1">
          <mxGeometry relative="1" as="geometry" />
        </mxCell>
        <mxCell id="bnrtpsS_CM_vW4E39BOG-27" value="N1" style="ellipse;whiteSpace=wrap;html=1;aspect=fixed;fillColor=#6a00ff;strokeColor=#3700CC;fontColor=#ffffff;fontStyle=1" vertex="1" parent="1">
          <mxGeometry x="376" y="35" width="40" height="40" as="geometry" />
        </mxCell>
        <mxCell id="bnrtpsS_CM_vW4E39BOG-28" style="edgeStyle=none;rounded=0;orthogonalLoop=1;jettySize=auto;html=1;endArrow=none;endFill=0;" edge="1" source="bnrtpsS_CM_vW4E39BOG-30" parent="1">
          <mxGeometry relative="1" as="geometry">
            <mxPoint x="350.0772212328633" y="207.6351371575107" as="targetPoint" />
          </mxGeometry>
        </mxCell>
        <mxCell id="bnrtpsS_CM_vW4E39BOG-29" style="edgeStyle=none;rounded=0;orthogonalLoop=1;jettySize=auto;html=1;endArrow=none;endFill=0;" edge="1" source="bnrtpsS_CM_vW4E39BOG-30" target="bnrtpsS_CM_vW4E39BOG-38" parent="1">
          <mxGeometry relative="1" as="geometry">
            <mxPoint x="289.9227787671366" y="207.6351371575115" as="targetPoint" />
          </mxGeometry>
        </mxCell>
        <mxCell id="bnrtpsS_CM_vW4E39BOG-30" value="N2" style="ellipse;whiteSpace=wrap;html=1;aspect=fixed;fillColor=#6a00ff;strokeColor=#3700CC;fontColor=#ffffff;fontStyle=1" vertex="1" parent="1">
          <mxGeometry x="320" y="135" width="40" height="40" as="geometry" />
        </mxCell>
        <mxCell id="bnrtpsS_CM_vW4E39BOG-32" style="edgeStyle=none;rounded=0;orthogonalLoop=1;jettySize=auto;html=1;endArrow=none;endFill=0;" edge="1" source="bnrtpsS_CM_vW4E39BOG-34" target="bnrtpsS_CM_vW4E39BOG-41" parent="1">
          <mxGeometry relative="1" as="geometry">
            <mxPoint x="406.726727939963" y="206.16516176810399" as="targetPoint" />
          </mxGeometry>
        </mxCell>
        <mxCell id="bnrtpsS_CM_vW4E39BOG-33" style="edgeStyle=none;rounded=0;orthogonalLoop=1;jettySize=auto;html=1;endArrow=none;endFill=0;" edge="1" source="bnrtpsS_CM_vW4E39BOG-34" target="bnrtpsS_CM_vW4E39BOG-40" parent="1">
          <mxGeometry relative="1" as="geometry" />
        </mxCell>
        <mxCell id="bnrtpsS_CM_vW4E39BOG-34" value="N3" style="ellipse;whiteSpace=wrap;html=1;aspect=fixed;fillColor=#6a00ff;strokeColor=#3700CC;fontColor=#ffffff;fontStyle=1" vertex="1" parent="1">
          <mxGeometry x="430" y="85" width="40" height="40" as="geometry" />
        </mxCell>
        <mxCell id="bnrtpsS_CM_vW4E39BOG-35" style="edgeStyle=none;rounded=0;orthogonalLoop=1;jettySize=auto;html=1;endArrow=none;endFill=0;" edge="1" source="bnrtpsS_CM_vW4E39BOG-34" target="bnrtpsS_CM_vW4E39BOG-42" parent="1">
          <mxGeometry relative="1" as="geometry">
            <mxPoint x="477.8787003721725" y="174.88718401088408" as="sourcePoint" />
            <mxPoint x="469.9227787671366" y="207.6351371575107" as="targetPoint" />
          </mxGeometry>
        </mxCell>
        <mxCell id="bnrtpsS_CM_vW4E39BOG-36" style="edgeStyle=none;rounded=0;orthogonalLoop=1;jettySize=auto;html=1;endArrow=none;endFill=0;" edge="1" source="bnrtpsS_CM_vW4E39BOG-34" target="bnrtpsS_CM_vW4E39BOG-43" parent="1">
          <mxGeometry relative="1" as="geometry">
            <mxPoint x="490" y="165" as="sourcePoint" />
            <mxPoint x="530.0772212328634" y="207.6351371575107" as="targetPoint" />
          </mxGeometry>
        </mxCell>
        <mxCell id="bnrtpsS_CM_vW4E39BOG-38" value="L1" style="rounded=0;whiteSpace=wrap;html=1;fillColor=#d80073;fontColor=#ffffff;strokeColor=#A50040;fontStyle=1" vertex="1" parent="1">
          <mxGeometry x="290" y="205" width="30" height="30" as="geometry" />
        </mxCell>
        <mxCell id="bnrtpsS_CM_vW4E39BOG-39" value="L2" style="rounded=0;whiteSpace=wrap;html=1;fillColor=#d80073;fontColor=#ffffff;strokeColor=#A50040;fontStyle=1" vertex="1" parent="1">
          <mxGeometry x="332" y="205" width="30" height="30" as="geometry" />
        </mxCell>
        <mxCell id="bnrtpsS_CM_vW4E39BOG-40" value="L3" style="rounded=0;whiteSpace=wrap;html=1;fillColor=#d80073;fontColor=#ffffff;strokeColor=#A50040;fontStyle=1" vertex="1" parent="1">
          <mxGeometry x="374" y="205" width="30" height="30" as="geometry" />
        </mxCell>
        <mxCell id="bnrtpsS_CM_vW4E39BOG-41" value="L4" style="rounded=0;whiteSpace=wrap;html=1;fillColor=#d80073;fontColor=#ffffff;strokeColor=#A50040;fontStyle=1" vertex="1" parent="1">
          <mxGeometry x="416" y="205" width="30" height="30" as="geometry" />
        </mxCell>
        <mxCell id="bnrtpsS_CM_vW4E39BOG-42" value="L5" style="rounded=0;whiteSpace=wrap;html=1;fillColor=#d80073;fontColor=#ffffff;strokeColor=#A50040;fontStyle=1" vertex="1" parent="1">
          <mxGeometry x="458" y="205" width="30" height="30" as="geometry" />
        </mxCell>
        <mxCell id="bnrtpsS_CM_vW4E39BOG-43" value="L6" style="rounded=0;whiteSpace=wrap;html=1;fillColor=#d80073;fontColor=#ffffff;strokeColor=#A50040;fontStyle=1" vertex="1" parent="1">
          <mxGeometry x="500" y="205" width="30" height="30" as="geometry" />
        </mxCell>
        <mxCell id="bnrtpsS_CM_vW4E39BOG-46" value="&lt;span style=&quot;background-color: rgb(216, 0, 115);&quot;&gt;&amp;gt;L1&lt;/span&gt;&lt;br&gt;ATCGATCGAGAGAGGGATTTNATCG&lt;br&gt;&lt;span style=&quot;background-color: rgb(216, 0, 115);&quot;&gt;&amp;gt;L2&lt;/span&gt;&lt;br&gt;TTTNATCGATCGATCGAGAGAGGGA&lt;br&gt;&lt;span style=&quot;background-color: rgb(216, 0, 115);&quot;&gt;&amp;gt;L3&lt;/span&gt;&lt;br&gt;AGAGAGGGAATCGATCGTTTNATCG&lt;br&gt;&lt;span style=&quot;background-color: rgb(216, 0, 115);&quot;&gt;&amp;gt;L4&lt;/span&gt;&lt;br&gt;CGATCGAGAGAATGGGATTTNATCG&lt;br&gt;&lt;span style=&quot;background-color: rgb(216, 0, 115);&quot;&gt;&amp;gt;L5&lt;/span&gt;&lt;br&gt;TNATCGATCGATCGAGAGAGGGATT&lt;br&gt;&lt;span style=&quot;background-color: rgb(216, 0, 115);&quot;&gt;&amp;gt;L6&lt;/span&gt;&lt;br&gt;ATCGATCGAGAGAGGGATTTNATCG" style="text;html=1;strokeColor=none;fillColor=none;align=left;verticalAlign=middle;whiteSpace=wrap;rounded=0;" vertex="1" parent="1">
          <mxGeometry x="12" y="289" width="228" height="180" as="geometry" />
        </mxCell>
        <mxCell id="bnrtpsS_CM_vW4E39BOG-51" value="Kmers Inverse Index (KII)" style="shape=table;startSize=30;container=1;collapsible=0;childLayout=tableLayout;fixedRows=1;rowLines=0;fontStyle=0;strokeColor=default;fontSize=16;" vertex="1" parent="1">
          <mxGeometry x="290" y="329" width="244" height="120" as="geometry" />
        </mxCell>
        <mxCell id="bnrtpsS_CM_vW4E39BOG-52" value="" style="shape=tableRow;horizontal=0;startSize=0;swimlaneHead=0;swimlaneBody=0;top=0;left=0;bottom=0;right=0;collapsible=0;dropTarget=0;fillColor=none;points=[[0,0.5],[1,0.5]];portConstraint=eastwest;strokeColor=inherit;fontSize=16;swimlaneFillColor=default;" vertex="1" parent="bnrtpsS_CM_vW4E39BOG-51">
          <mxGeometry y="30" width="244" height="30" as="geometry" />
        </mxCell>
        <mxCell id="bnrtpsS_CM_vW4E39BOG-53" value="ATCGATCGAGAG" style="shape=partialRectangle;html=1;whiteSpace=wrap;connectable=0;fillColor=none;top=0;left=0;bottom=0;right=0;overflow=hidden;pointerEvents=1;strokeColor=inherit;fontSize=16;" vertex="1" parent="bnrtpsS_CM_vW4E39BOG-52">
          <mxGeometry width="150" height="30" as="geometry">
            <mxRectangle width="150" height="30" as="alternateBounds" />
          </mxGeometry>
        </mxCell>
        <mxCell id="bnrtpsS_CM_vW4E39BOG-54" value="&lt;span style=&quot;background-color: rgb(216, 0, 115);&quot;&gt;L1, L2&lt;/span&gt;" style="shape=partialRectangle;html=1;whiteSpace=wrap;connectable=0;fillColor=none;top=0;left=0;bottom=0;right=0;align=left;spacingLeft=6;overflow=hidden;strokeColor=inherit;fontSize=16;" vertex="1" parent="bnrtpsS_CM_vW4E39BOG-52">
          <mxGeometry x="150" width="94" height="30" as="geometry">
            <mxRectangle width="94" height="30" as="alternateBounds" />
          </mxGeometry>
        </mxCell>
        <mxCell id="bnrtpsS_CM_vW4E39BOG-55" value="" style="shape=tableRow;horizontal=0;startSize=0;swimlaneHead=0;swimlaneBody=0;top=0;left=0;bottom=0;right=0;collapsible=0;dropTarget=0;fillColor=none;points=[[0,0.5],[1,0.5]];portConstraint=eastwest;strokeColor=inherit;fontSize=16;" vertex="1" parent="bnrtpsS_CM_vW4E39BOG-51">
          <mxGeometry y="60" width="244" height="30" as="geometry" />
        </mxCell>
        <mxCell id="bnrtpsS_CM_vW4E39BOG-56" value="CGATCGAGAGAG" style="shape=partialRectangle;html=1;whiteSpace=wrap;connectable=0;fillColor=none;top=0;left=0;bottom=0;right=0;overflow=hidden;strokeColor=inherit;fontSize=16;swimlaneFillColor=default;" vertex="1" parent="bnrtpsS_CM_vW4E39BOG-55">
          <mxGeometry width="150" height="30" as="geometry">
            <mxRectangle width="150" height="30" as="alternateBounds" />
          </mxGeometry>
        </mxCell>
        <mxCell id="bnrtpsS_CM_vW4E39BOG-57" value="&lt;span style=&quot;background-color: rgb(216, 0, 115);&quot;&gt;L2, L3, L4&lt;/span&gt;" style="shape=partialRectangle;html=1;whiteSpace=wrap;connectable=0;fillColor=none;top=0;left=0;bottom=0;right=0;align=left;spacingLeft=6;overflow=hidden;strokeColor=inherit;fontSize=16;swimlaneFillColor=default;" vertex="1" parent="bnrtpsS_CM_vW4E39BOG-55">
          <mxGeometry x="150" width="94" height="30" as="geometry">
            <mxRectangle width="94" height="30" as="alternateBounds" />
          </mxGeometry>
        </mxCell>
        <mxCell id="bnrtpsS_CM_vW4E39BOG-58" value="" style="shape=tableRow;horizontal=0;startSize=0;swimlaneHead=0;swimlaneBody=0;top=0;left=0;bottom=0;right=0;collapsible=0;dropTarget=0;fillColor=none;points=[[0,0.5],[1,0.5]];portConstraint=eastwest;strokeColor=inherit;fontSize=16;" vertex="1" parent="bnrtpsS_CM_vW4E39BOG-51">
          <mxGeometry y="90" width="244" height="30" as="geometry" />
        </mxCell>
        <mxCell id="bnrtpsS_CM_vW4E39BOG-59" value="CGAGAGAGGGAT" style="shape=partialRectangle;html=1;whiteSpace=wrap;connectable=0;fillColor=none;top=0;left=0;bottom=0;right=0;overflow=hidden;strokeColor=inherit;fontSize=16;swimlaneFillColor=default;" vertex="1" parent="bnrtpsS_CM_vW4E39BOG-58">
          <mxGeometry width="150" height="30" as="geometry">
            <mxRectangle width="150" height="30" as="alternateBounds" />
          </mxGeometry>
        </mxCell>
        <mxCell id="bnrtpsS_CM_vW4E39BOG-60" value="&lt;span style=&quot;background-color: rgb(216, 0, 115);&quot;&gt;L1, L4, L6&lt;/span&gt;" style="shape=partialRectangle;html=1;whiteSpace=wrap;connectable=0;fillColor=none;top=0;left=0;bottom=0;right=0;align=left;spacingLeft=6;overflow=hidden;strokeColor=inherit;fontSize=16;swimlaneFillColor=default;" vertex="1" parent="bnrtpsS_CM_vW4E39BOG-58">
          <mxGeometry x="150" width="94" height="30" as="geometry">
            <mxRectangle width="94" height="30" as="alternateBounds" />
          </mxGeometry>
        </mxCell>
        <mxCell id="bnrtpsS_CM_vW4E39BOG-61" value="&lt;font style=&quot;font-size: 18px;&quot;&gt;Classeq&lt;br&gt;Tarball&lt;br&gt;&lt;br&gt;KII + NKI&lt;br&gt;&lt;/font&gt;" style="shape=mxgraph.bpmn.conversation;perimeter=hexagonPerimeter2;whiteSpace=wrap;html=1;aspect=fixed;bpmnConversationType=conv;" vertex="1" parent="1">
          <mxGeometry x="342" y="511" width="140" height="120" as="geometry" />
        </mxCell>
        <mxCell id="_QdQIy4yc0zmCQt83ZC5-1" value="" style="endArrow=none;html=1;rounded=0;strokeWidth=0.5;" edge="1" parent="1">
          <mxGeometry width="50" height="50" relative="1" as="geometry">
            <mxPoint x="23" y="255" as="sourcePoint" />
            <mxPoint x="533" y="255" as="targetPoint" />
          </mxGeometry>
        </mxCell>
        <mxCell id="_QdQIy4yc0zmCQt83ZC5-2" value="" style="endArrow=none;html=1;rounded=0;strokeWidth=0.5;" edge="1" parent="1">
          <mxGeometry width="50" height="50" relative="1" as="geometry">
            <mxPoint x="272" y="15" as="sourcePoint" />
            <mxPoint x="272" y="645" as="targetPoint" />
          </mxGeometry>
        </mxCell>
        <mxCell id="_QdQIy4yc0zmCQt83ZC5-3" value="" style="endArrow=none;html=1;rounded=0;strokeWidth=0.5;" edge="1" parent="1">
          <mxGeometry width="50" height="50" relative="1" as="geometry">
            <mxPoint x="24" y="482" as="sourcePoint" />
            <mxPoint x="534" y="482" as="targetPoint" />
          </mxGeometry>
        </mxCell>
        <mxCell id="_QdQIy4yc0zmCQt83ZC5-6" value="Nodes to Kmers Index (NKI)" style="shape=table;startSize=30;container=1;collapsible=0;childLayout=tableLayout;fixedRows=1;rowLines=0;fontStyle=0;strokeColor=default;fontSize=16;" vertex="1" parent="1">
          <mxGeometry x="20" y="521" width="236" height="120" as="geometry" />
        </mxCell>
        <mxCell id="_QdQIy4yc0zmCQt83ZC5-7" value="" style="shape=tableRow;horizontal=0;startSize=0;swimlaneHead=0;swimlaneBody=0;top=0;left=0;bottom=0;right=0;collapsible=0;dropTarget=0;fillColor=none;points=[[0,0.5],[1,0.5]];portConstraint=eastwest;strokeColor=inherit;fontSize=16;swimlaneFillColor=default;" vertex="1" parent="_QdQIy4yc0zmCQt83ZC5-6">
          <mxGeometry y="30" width="236" height="30" as="geometry" />
        </mxCell>
        <mxCell id="_QdQIy4yc0zmCQt83ZC5-8" value="&lt;span style=&quot;background-color: rgb(106, 0, 255);&quot;&gt;N2&lt;/span&gt;" style="shape=partialRectangle;html=1;whiteSpace=wrap;connectable=0;fillColor=none;top=0;left=0;bottom=0;right=0;overflow=hidden;pointerEvents=1;strokeColor=inherit;fontSize=16;" vertex="1" parent="_QdQIy4yc0zmCQt83ZC5-7">
          <mxGeometry width="66" height="30" as="geometry">
            <mxRectangle width="66" height="30" as="alternateBounds" />
          </mxGeometry>
        </mxCell>
        <mxCell id="_QdQIy4yc0zmCQt83ZC5-9" value="&lt;span style=&quot;background-color: rgb(216, 0, 115);&quot;&gt;ATCGATCGAGAG&lt;/span&gt;" style="shape=partialRectangle;html=1;whiteSpace=wrap;connectable=0;fillColor=none;top=0;left=0;bottom=0;right=0;align=left;spacingLeft=6;overflow=hidden;strokeColor=inherit;fontSize=16;" vertex="1" parent="_QdQIy4yc0zmCQt83ZC5-7">
          <mxGeometry x="66" width="170" height="30" as="geometry">
            <mxRectangle width="170" height="30" as="alternateBounds" />
          </mxGeometry>
        </mxCell>
        <mxCell id="_QdQIy4yc0zmCQt83ZC5-10" value="" style="shape=tableRow;horizontal=0;startSize=0;swimlaneHead=0;swimlaneBody=0;top=0;left=0;bottom=0;right=0;collapsible=0;dropTarget=0;fillColor=none;points=[[0,0.5],[1,0.5]];portConstraint=eastwest;strokeColor=inherit;fontSize=16;" vertex="1" parent="_QdQIy4yc0zmCQt83ZC5-6">
          <mxGeometry y="60" width="236" height="30" as="geometry" />
        </mxCell>
        <mxCell id="_QdQIy4yc0zmCQt83ZC5-11" value="&lt;span style=&quot;background-color: rgb(106, 0, 255);&quot;&gt;N2&lt;/span&gt;" style="shape=partialRectangle;html=1;whiteSpace=wrap;connectable=0;fillColor=none;top=0;left=0;bottom=0;right=0;overflow=hidden;strokeColor=inherit;fontSize=16;swimlaneFillColor=default;" vertex="1" parent="_QdQIy4yc0zmCQt83ZC5-10">
          <mxGeometry width="66" height="30" as="geometry">
            <mxRectangle width="66" height="30" as="alternateBounds" />
          </mxGeometry>
        </mxCell>
        <mxCell id="_QdQIy4yc0zmCQt83ZC5-12" value="&lt;span style=&quot;background-color: rgb(216, 0, 115);&quot;&gt;CGATCGAGAGAG&lt;/span&gt;" style="shape=partialRectangle;html=1;whiteSpace=wrap;connectable=0;fillColor=none;top=0;left=0;bottom=0;right=0;align=left;spacingLeft=6;overflow=hidden;strokeColor=inherit;fontSize=16;swimlaneFillColor=default;" vertex="1" parent="_QdQIy4yc0zmCQt83ZC5-10">
          <mxGeometry x="66" width="170" height="30" as="geometry">
            <mxRectangle width="170" height="30" as="alternateBounds" />
          </mxGeometry>
        </mxCell>
        <mxCell id="_QdQIy4yc0zmCQt83ZC5-13" value="" style="shape=tableRow;horizontal=0;startSize=0;swimlaneHead=0;swimlaneBody=0;top=0;left=0;bottom=0;right=0;collapsible=0;dropTarget=0;fillColor=none;points=[[0,0.5],[1,0.5]];portConstraint=eastwest;strokeColor=inherit;fontSize=16;" vertex="1" parent="_QdQIy4yc0zmCQt83ZC5-6">
          <mxGeometry y="90" width="236" height="30" as="geometry" />
        </mxCell>
        <mxCell id="_QdQIy4yc0zmCQt83ZC5-14" value="&lt;span style=&quot;background-color: rgb(106, 0, 255);&quot;&gt;N3&lt;/span&gt;" style="shape=partialRectangle;html=1;whiteSpace=wrap;connectable=0;fillColor=none;top=0;left=0;bottom=0;right=0;overflow=hidden;strokeColor=inherit;fontSize=16;swimlaneFillColor=default;" vertex="1" parent="_QdQIy4yc0zmCQt83ZC5-13">
          <mxGeometry width="66" height="30" as="geometry">
            <mxRectangle width="66" height="30" as="alternateBounds" />
          </mxGeometry>
        </mxCell>
        <mxCell id="_QdQIy4yc0zmCQt83ZC5-15" value="&lt;span style=&quot;background-color: rgb(216, 0, 115);&quot;&gt;CGAGAGAGGGAT&lt;/span&gt;" style="shape=partialRectangle;html=1;whiteSpace=wrap;connectable=0;fillColor=none;top=0;left=0;bottom=0;right=0;align=left;spacingLeft=6;overflow=hidden;strokeColor=inherit;fontSize=16;swimlaneFillColor=default;" vertex="1" parent="_QdQIy4yc0zmCQt83ZC5-13">
          <mxGeometry x="66" width="170" height="30" as="geometry">
            <mxRectangle width="170" height="30" as="alternateBounds" />
          </mxGeometry>
        </mxCell>
        <mxCell id="O6fzyU4fGEFc11jiPOrm-1" value="&lt;font style=&quot;font-size: 18px;&quot;&gt;A&lt;/font&gt;" style="text;html=1;strokeColor=none;fillColor=none;align=center;verticalAlign=middle;whiteSpace=wrap;rounded=0;" vertex="1" parent="1">
          <mxGeometry x="12" y="15" width="60" height="30" as="geometry" />
        </mxCell>
        <mxCell id="O6fzyU4fGEFc11jiPOrm-2" value="&lt;span style=&quot;font-size: 18px;&quot;&gt;B&lt;/span&gt;" style="text;html=1;strokeColor=none;fillColor=none;align=center;verticalAlign=middle;whiteSpace=wrap;rounded=0;" vertex="1" parent="1">
          <mxGeometry x="290" y="15" width="60" height="30" as="geometry" />
        </mxCell>
        <mxCell id="O6fzyU4fGEFc11jiPOrm-3" value="&lt;font style=&quot;font-size: 18px;&quot;&gt;C&lt;/font&gt;" style="text;html=1;strokeColor=none;fillColor=none;align=center;verticalAlign=middle;whiteSpace=wrap;rounded=0;" vertex="1" parent="1">
          <mxGeometry x="12" y="258" width="60" height="30" as="geometry" />
        </mxCell>
        <mxCell id="O6fzyU4fGEFc11jiPOrm-4" value="&lt;span style=&quot;font-size: 18px;&quot;&gt;D&lt;/span&gt;" style="text;html=1;strokeColor=none;fillColor=none;align=center;verticalAlign=middle;whiteSpace=wrap;rounded=0;" vertex="1" parent="1">
          <mxGeometry x="290" y="258" width="60" height="30" as="geometry" />
        </mxCell>
        <mxCell id="O6fzyU4fGEFc11jiPOrm-5" value="&lt;font style=&quot;font-size: 18px;&quot;&gt;E&lt;/font&gt;" style="text;html=1;strokeColor=none;fillColor=none;align=center;verticalAlign=middle;whiteSpace=wrap;rounded=0;" vertex="1" parent="1">
          <mxGeometry x="12" y="486" width="60" height="30" as="geometry" />
        </mxCell>
        <mxCell id="O6fzyU4fGEFc11jiPOrm-6" value="&lt;span style=&quot;font-size: 18px;&quot;&gt;F&lt;/span&gt;" style="text;html=1;strokeColor=none;fillColor=none;align=center;verticalAlign=middle;whiteSpace=wrap;rounded=0;" vertex="1" parent="1">
          <mxGeometry x="290" y="486" width="60" height="30" as="geometry" />
        </mxCell>
      </root>
    </mxGraphModel>
  </diagram>
  <diagram name="validation-assays" id="YyqD6gSXIYppdcMXU_HQ">
    <mxGraphModel dx="1728" dy="756" grid="1" gridSize="10" guides="1" tooltips="1" connect="1" arrows="1" fold="1" page="1" pageScale="1" pageWidth="600" pageHeight="700" math="0" shadow="0">
      <root>
        <mxCell id="0" />
        <mxCell id="1" parent="0" />
        <mxCell id="eH2llV_tonc0OVVcTMWQ-1" value="&lt;b&gt;&lt;i&gt;Bacillus subtilis&lt;/i&gt; group (ingroup)&lt;/b&gt;" style="rounded=1;whiteSpace=wrap;html=1;fillColor=#6d8764;fontColor=#ffffff;strokeColor=#3A5431;" parent="1" vertex="1">
          <mxGeometry x="468" y="409" width="110" height="60" as="geometry" />
        </mxCell>
        <mxCell id="eH2llV_tonc0OVVcTMWQ-3" value="&lt;b&gt;&lt;i&gt;Bacillus cereus&lt;/i&gt; group&lt;/b&gt;" style="rounded=1;whiteSpace=wrap;html=1;fillColor=#e3c800;fontColor=#000000;strokeColor=#B09500;" parent="1" vertex="1">
          <mxGeometry x="281" y="409" width="110" height="60" as="geometry" />
        </mxCell>
        <mxCell id="eH2llV_tonc0OVVcTMWQ-8" style="rounded=0;orthogonalLoop=1;jettySize=auto;html=1;strokeWidth=2;flowAnimation=1;exitX=0.5;exitY=1;exitDx=0;exitDy=0;" parent="1" source="eH2llV_tonc0OVVcTMWQ-36" target="eH2llV_tonc0OVVcTMWQ-3" edge="1">
          <mxGeometry relative="1" as="geometry">
            <mxPoint x="336" y="364" as="sourcePoint" />
          </mxGeometry>
        </mxCell>
        <mxCell id="eH2llV_tonc0OVVcTMWQ-14" style="edgeStyle=orthogonalEdgeStyle;rounded=0;orthogonalLoop=1;jettySize=auto;html=1;strokeWidth=2;flowAnimation=1;endArrow=none;endFill=0;exitX=1;exitY=0.5;exitDx=0;exitDy=0;" parent="1" source="eH2llV_tonc0OVVcTMWQ-36" target="eH2llV_tonc0OVVcTMWQ-20" edge="1">
          <mxGeometry relative="1" as="geometry">
            <mxPoint x="397" y="324" as="sourcePoint" />
          </mxGeometry>
        </mxCell>
        <mxCell id="eH2llV_tonc0OVVcTMWQ-9" value="&lt;b&gt;&lt;i&gt;Paenibacillus&lt;/i&gt;&lt;br&gt;(Bacilli)&lt;/b&gt;" style="rounded=1;whiteSpace=wrap;html=1;fillColor=#f0a30a;fontColor=#000000;strokeColor=#BD7000;" parent="1" vertex="1">
          <mxGeometry x="154" y="409" width="110" height="60" as="geometry" />
        </mxCell>
        <mxCell id="eH2llV_tonc0OVVcTMWQ-11" style="edgeStyle=orthogonalEdgeStyle;rounded=0;orthogonalLoop=1;jettySize=auto;html=1;strokeWidth=2;flowAnimation=1;endArrow=none;endFill=0;exitX=1;exitY=0.5;exitDx=0;exitDy=0;" parent="1" source="eH2llV_tonc0OVVcTMWQ-33" target="eH2llV_tonc0OVVcTMWQ-19" edge="1">
          <mxGeometry relative="1" as="geometry">
            <mxPoint x="281.9999999999998" y="214" as="sourcePoint" />
          </mxGeometry>
        </mxCell>
        <mxCell id="eH2llV_tonc0OVVcTMWQ-12" style="edgeStyle=orthogonalEdgeStyle;rounded=0;orthogonalLoop=1;jettySize=auto;html=1;strokeWidth=2;flowAnimation=1;exitX=0.5;exitY=1;exitDx=0;exitDy=0;" parent="1" source="eH2llV_tonc0OVVcTMWQ-33" target="eH2llV_tonc0OVVcTMWQ-9" edge="1">
          <mxGeometry relative="1" as="geometry">
            <mxPoint x="208.99999999999977" y="274" as="sourcePoint" />
          </mxGeometry>
        </mxCell>
        <mxCell id="eH2llV_tonc0OVVcTMWQ-17" style="edgeStyle=orthogonalEdgeStyle;rounded=0;orthogonalLoop=1;jettySize=auto;html=1;strokeWidth=2;flowAnimation=1;exitX=0.5;exitY=1;exitDx=0;exitDy=0;" parent="1" source="eH2llV_tonc0OVVcTMWQ-31" target="eH2llV_tonc0OVVcTMWQ-16" edge="1">
          <mxGeometry relative="1" as="geometry">
            <mxPoint x="79" y="181" as="sourcePoint" />
          </mxGeometry>
        </mxCell>
        <mxCell id="eH2llV_tonc0OVVcTMWQ-18" style="edgeStyle=orthogonalEdgeStyle;rounded=0;orthogonalLoop=1;jettySize=auto;html=1;strokeWidth=2;flowAnimation=1;" parent="1" source="eH2llV_tonc0OVVcTMWQ-20" target="eH2llV_tonc0OVVcTMWQ-1" edge="1">
          <mxGeometry relative="1" as="geometry" />
        </mxCell>
        <mxCell id="eH2llV_tonc0OVVcTMWQ-16" value="&lt;b&gt;&lt;i&gt;Streptomyces&lt;/i&gt;&lt;br&gt;(Terraform group)&lt;br&gt;&lt;/b&gt;&lt;span style=&quot;&quot;&gt;&lt;/span&gt;" style="rounded=1;whiteSpace=wrap;html=1;fillColor=#e51400;fontColor=#ffffff;strokeColor=#B20000;" parent="1" vertex="1">
          <mxGeometry x="24" y="409" width="110" height="60" as="geometry" />
        </mxCell>
        <mxCell id="eH2llV_tonc0OVVcTMWQ-22" style="edgeStyle=orthogonalEdgeStyle;rounded=0;orthogonalLoop=1;jettySize=auto;html=1;strokeWidth=2;flowAnimation=1;endArrow=none;endFill=0;" parent="1" source="eH2llV_tonc0OVVcTMWQ-19" target="eH2llV_tonc0OVVcTMWQ-20" edge="1">
          <mxGeometry relative="1" as="geometry" />
        </mxCell>
        <mxCell id="eH2llV_tonc0OVVcTMWQ-19" value="" style="ellipse;whiteSpace=wrap;html=1;aspect=fixed;" parent="1" vertex="1">
          <mxGeometry x="520" y="211" width="6" height="6" as="geometry" />
        </mxCell>
        <mxCell id="eH2llV_tonc0OVVcTMWQ-21" value="" style="edgeStyle=orthogonalEdgeStyle;rounded=0;orthogonalLoop=1;jettySize=auto;html=1;strokeWidth=2;flowAnimation=1;endArrow=none;endFill=0;exitX=1;exitY=0.5;exitDx=0;exitDy=0;entryX=0;entryY=0.5;entryDx=0;entryDy=0;" parent="1" source="eH2llV_tonc0OVVcTMWQ-31" target="eH2llV_tonc0OVVcTMWQ-37" edge="1">
          <mxGeometry relative="1" as="geometry">
            <mxPoint x="157" y="121" as="sourcePoint" />
            <mxPoint x="472" y="389" as="targetPoint" />
          </mxGeometry>
        </mxCell>
        <mxCell id="eH2llV_tonc0OVVcTMWQ-20" value="" style="ellipse;whiteSpace=wrap;html=1;aspect=fixed;" parent="1" vertex="1">
          <mxGeometry x="520" y="321" width="6" height="6" as="geometry" />
        </mxCell>
        <mxCell id="eH2llV_tonc0OVVcTMWQ-25" value="" style="shape=manualInput;whiteSpace=wrap;html=1;dashed=0;size=13;rotation=-180;gradientColor=#6D8764;gradientDirection=west;fillColor=#E51400;" parent="1" vertex="1">
          <mxGeometry x="76" y="481" width="445" height="30" as="geometry" />
        </mxCell>
        <mxCell id="eH2llV_tonc0OVVcTMWQ-29" value="&lt;h1&gt;Level 3&lt;/h1&gt;&lt;p&gt;Specificity with high divertent (extra-phylum) outgroups&lt;br&gt;&lt;/p&gt;" style="text;html=1;strokeColor=none;fillColor=none;spacing=5;spacingTop=-20;whiteSpace=wrap;overflow=hidden;rounded=0;" parent="1" vertex="1">
          <mxGeometry x="79" y="14" width="190" height="90" as="geometry" />
        </mxCell>
        <mxCell id="eH2llV_tonc0OVVcTMWQ-31" value="" style="ellipse;whiteSpace=wrap;html=1;aspect=fixed;" parent="1" vertex="1">
          <mxGeometry x="76" y="101" width="6" height="6" as="geometry" />
        </mxCell>
        <mxCell id="eH2llV_tonc0OVVcTMWQ-32" value="&lt;h1&gt;Level 2&lt;/h1&gt;&lt;p&gt;Specificity with mid divertent (extra-generic) outgroups&lt;br&gt;&lt;/p&gt;" style="text;html=1;strokeColor=none;fillColor=none;spacing=5;spacingTop=-20;whiteSpace=wrap;overflow=hidden;rounded=0;" parent="1" vertex="1">
          <mxGeometry x="209" y="124" width="190" height="90" as="geometry" />
        </mxCell>
        <mxCell id="eH2llV_tonc0OVVcTMWQ-33" value="" style="ellipse;whiteSpace=wrap;html=1;aspect=fixed;" parent="1" vertex="1">
          <mxGeometry x="206" y="211" width="6" height="6" as="geometry" />
        </mxCell>
        <mxCell id="eH2llV_tonc0OVVcTMWQ-35" value="&lt;h1&gt;Level 1&lt;/h1&gt;&lt;p&gt;Specificity with low divergent (infra-generic) outgroups&lt;br&gt;&lt;/p&gt;" style="text;html=1;strokeColor=none;fillColor=none;spacing=5;spacingTop=-20;whiteSpace=wrap;overflow=hidden;rounded=0;" parent="1" vertex="1">
          <mxGeometry x="336" y="234" width="164" height="90" as="geometry" />
        </mxCell>
        <mxCell id="eH2llV_tonc0OVVcTMWQ-36" value="" style="ellipse;whiteSpace=wrap;html=1;aspect=fixed;" parent="1" vertex="1">
          <mxGeometry x="333" y="321" width="6" height="6" as="geometry" />
        </mxCell>
        <mxCell id="eH2llV_tonc0OVVcTMWQ-38" style="edgeStyle=orthogonalEdgeStyle;rounded=0;orthogonalLoop=1;jettySize=auto;html=1;entryX=0.5;entryY=0;entryDx=0;entryDy=0;strokeWidth=2;flowAnimation=1;endArrow=none;endFill=0;" parent="1" source="eH2llV_tonc0OVVcTMWQ-37" target="eH2llV_tonc0OVVcTMWQ-19" edge="1">
          <mxGeometry relative="1" as="geometry" />
        </mxCell>
        <mxCell id="eH2llV_tonc0OVVcTMWQ-37" value="" style="ellipse;whiteSpace=wrap;html=1;aspect=fixed;" parent="1" vertex="1">
          <mxGeometry x="520" y="101" width="6" height="6" as="geometry" />
        </mxCell>
        <mxCell id="eH2llV_tonc0OVVcTMWQ-39" value="&lt;b&gt;Phylogenetic distance&lt;/b&gt;" style="text;html=1;strokeColor=none;fillColor=none;align=left;verticalAlign=middle;whiteSpace=wrap;rounded=0;" parent="1" vertex="1">
          <mxGeometry x="79" y="480" width="168" height="30" as="geometry" />
        </mxCell>
        <mxCell id="eH2llV_tonc0OVVcTMWQ-41" value="&lt;font style=&quot;font-size: 18px;&quot;&gt;Prediction set&lt;/font&gt;" style="text;html=1;strokeColor=none;fillColor=none;align=left;verticalAlign=middle;whiteSpace=wrap;rounded=0;" parent="1" vertex="1">
          <mxGeometry x="229" y="561" width="140" height="30" as="geometry" />
        </mxCell>
        <mxCell id="eH2llV_tonc0OVVcTMWQ-46" value="" style="rounded=0;whiteSpace=wrap;html=1;fillColor=#6d8764;fontColor=#ffffff;strokeColor=#3A5431;" parent="1" vertex="1">
          <mxGeometry x="177" y="593" width="110" height="30" as="geometry" />
        </mxCell>
        <mxCell id="eH2llV_tonc0OVVcTMWQ-47" value="" style="rounded=0;whiteSpace=wrap;html=1;fillColor=#6d8764;fontColor=#ffffff;strokeColor=#3A5431;" parent="1" vertex="1">
          <mxGeometry x="177" y="623" width="110" height="30" as="geometry" />
        </mxCell>
        <mxCell id="eH2llV_tonc0OVVcTMWQ-52" value="" style="endArrow=none;html=1;rounded=0;strokeWidth=0.5;" parent="1" edge="1">
          <mxGeometry width="50" height="50" relative="1" as="geometry">
            <mxPoint x="40" y="546" as="sourcePoint" />
            <mxPoint x="550" y="546" as="targetPoint" />
          </mxGeometry>
        </mxCell>
        <mxCell id="BZCCK-kEVYSAEUnD6-Zv-1" value="&lt;span style=&quot;font-size: 18px;&quot;&gt;A&lt;/span&gt;" style="text;html=1;strokeColor=none;fillColor=none;align=center;verticalAlign=middle;whiteSpace=wrap;rounded=0;" vertex="1" parent="1">
          <mxGeometry y="14" width="60" height="30" as="geometry" />
        </mxCell>
        <mxCell id="BZCCK-kEVYSAEUnD6-Zv-2" value="&lt;span style=&quot;font-size: 18px;&quot;&gt;B&lt;/span&gt;" style="text;html=1;strokeColor=none;fillColor=none;align=center;verticalAlign=middle;whiteSpace=wrap;rounded=0;" vertex="1" parent="1">
          <mxGeometry y="573" width="60" height="30" as="geometry" />
        </mxCell>
        <mxCell id="BZCCK-kEVYSAEUnD6-Zv-3" value="&lt;font style=&quot;font-size: 16px;&quot;&gt;&lt;i&gt;B. subtilis&lt;/i&gt; group&lt;/font&gt;" style="text;html=1;strokeColor=none;fillColor=none;align=center;verticalAlign=middle;whiteSpace=wrap;rounded=0;" vertex="1" parent="1">
          <mxGeometry x="111" y="653" width="176" height="39" as="geometry" />
        </mxCell>
        <mxCell id="BZCCK-kEVYSAEUnD6-Zv-5" value="&lt;font style=&quot;font-size: 16px;&quot;&gt;Refseq&lt;/font&gt;" style="text;html=1;strokeColor=none;fillColor=none;align=right;verticalAlign=middle;whiteSpace=wrap;rounded=0;" vertex="1" parent="1">
          <mxGeometry x="77" y="593" width="90" height="30" as="geometry" />
        </mxCell>
        <mxCell id="BZCCK-kEVYSAEUnD6-Zv-6" value="&lt;font style=&quot;font-size: 16px;&quot;&gt;Non-Refseq&lt;/font&gt;" style="text;html=1;strokeColor=none;fillColor=none;align=right;verticalAlign=middle;whiteSpace=wrap;rounded=0;" vertex="1" parent="1">
          <mxGeometry x="77" y="623" width="90" height="30" as="geometry" />
        </mxCell>
        <mxCell id="BZCCK-kEVYSAEUnD6-Zv-12" value="" style="rounded=0;whiteSpace=wrap;html=1;fillColor=#e51400;fontColor=#ffffff;strokeColor=#B20000;" vertex="1" parent="1">
          <mxGeometry x="287" y="593" width="70" height="30" as="geometry" />
        </mxCell>
        <mxCell id="BZCCK-kEVYSAEUnD6-Zv-13" value="" style="rounded=0;whiteSpace=wrap;html=1;fillColor=#e51400;fontColor=#ffffff;strokeColor=#B20000;" vertex="1" parent="1">
          <mxGeometry x="287" y="623" width="70" height="30" as="geometry" />
        </mxCell>
        <mxCell id="BZCCK-kEVYSAEUnD6-Zv-18" value="" style="rounded=0;whiteSpace=wrap;html=1;fillColor=#fa6800;fontColor=#000000;strokeColor=#C73500;" vertex="1" parent="1">
          <mxGeometry x="357" y="623" width="70" height="30" as="geometry" />
        </mxCell>
        <mxCell id="BZCCK-kEVYSAEUnD6-Zv-19" value="" style="rounded=0;whiteSpace=wrap;html=1;fillColor=#fa6800;fontColor=#000000;strokeColor=#C73500;" vertex="1" parent="1">
          <mxGeometry x="357" y="593" width="70" height="30" as="geometry" />
        </mxCell>
        <mxCell id="BZCCK-kEVYSAEUnD6-Zv-20" value="" style="rounded=0;whiteSpace=wrap;html=1;fillColor=#f0a30a;fontColor=#000000;strokeColor=#BD7000;" vertex="1" parent="1">
          <mxGeometry x="427" y="623" width="70" height="30" as="geometry" />
        </mxCell>
        <mxCell id="BZCCK-kEVYSAEUnD6-Zv-21" value="" style="rounded=0;whiteSpace=wrap;html=1;fillColor=#f0a30a;fontColor=#000000;strokeColor=#BD7000;" vertex="1" parent="1">
          <mxGeometry x="427" y="593" width="70" height="30" as="geometry" />
        </mxCell>
        <mxCell id="BZCCK-kEVYSAEUnD6-Zv-4" value="&lt;font size=&quot;1&quot; style=&quot;&quot;&gt;&lt;span style=&quot;font-size: 16px;&quot;&gt;Outgroups&lt;/span&gt;&lt;/font&gt;" style="text;html=1;strokeColor=none;fillColor=none;align=center;verticalAlign=middle;whiteSpace=wrap;rounded=0;" vertex="1" parent="1">
          <mxGeometry x="290" y="653" width="210" height="39" as="geometry" />
        </mxCell>
        <mxCell id="BZCCK-kEVYSAEUnD6-Zv-22" value="" style="endArrow=none;html=1;rounded=0;entryX=1;entryY=0;entryDx=0;entryDy=0;exitX=0;exitY=1;exitDx=0;exitDy=0;" edge="1" parent="1" source="BZCCK-kEVYSAEUnD6-Zv-4" target="eH2llV_tonc0OVVcTMWQ-46">
          <mxGeometry width="50" height="50" relative="1" as="geometry">
            <mxPoint x="61" y="630" as="sourcePoint" />
            <mxPoint x="111" y="580" as="targetPoint" />
          </mxGeometry>
        </mxCell>
        <mxCell id="BZCCK-kEVYSAEUnD6-Zv-23" value="" style="endArrow=none;html=1;rounded=0;entryX=1;entryY=0;entryDx=0;entryDy=0;exitX=0;exitY=1;exitDx=0;exitDy=0;" edge="1" parent="1" source="BZCCK-kEVYSAEUnD6-Zv-5" target="BZCCK-kEVYSAEUnD6-Zv-20">
          <mxGeometry width="50" height="50" relative="1" as="geometry">
            <mxPoint x="297" y="719" as="sourcePoint" />
            <mxPoint x="297" y="603" as="targetPoint" />
          </mxGeometry>
        </mxCell>
        <mxCell id="BZCCK-kEVYSAEUnD6-Zv-24" value="" style="endArrow=none;html=1;rounded=0;entryX=1;entryY=0;entryDx=0;entryDy=0;exitX=0;exitY=1;exitDx=0;exitDy=0;" edge="1" parent="1">
          <mxGeometry width="50" height="50" relative="1" as="geometry">
            <mxPoint x="77" y="593" as="sourcePoint" />
            <mxPoint x="497" y="593" as="targetPoint" />
          </mxGeometry>
        </mxCell>
        <mxCell id="BZCCK-kEVYSAEUnD6-Zv-25" value="" style="endArrow=none;html=1;rounded=0;entryX=1;entryY=0;entryDx=0;entryDy=0;exitX=0;exitY=1;exitDx=0;exitDy=0;" edge="1" parent="1">
          <mxGeometry width="50" height="50" relative="1" as="geometry">
            <mxPoint x="77" y="652.67" as="sourcePoint" />
            <mxPoint x="497" y="652.67" as="targetPoint" />
          </mxGeometry>
        </mxCell>
      </root>
    </mxGraphModel>
  </diagram>
</mxfile>
